<?xml version="1.0" encoding="UTF-8" standalone="no"?>
<!-- Created with Inkscape (http://www.inkscape.org/) -->

<svg
   xmlns:dc="http://purl.org/dc/elements/1.1/"
   xmlns:cc="http://creativecommons.org/ns#"
   xmlns:rdf="http://www.w3.org/1999/02/22-rdf-syntax-ns#"
   xmlns:svg="http://www.w3.org/2000/svg"
   xmlns="http://www.w3.org/2000/svg"
   xmlns:sodipodi="http://sodipodi.sourceforge.net/DTD/sodipodi-0.dtd"
   xmlns:inkscape="http://www.inkscape.org/namespaces/inkscape"
   width="198.59769"
   height="193.17566"
   id="svg3233"
   version="1.1"
   inkscape:version="0.48.3.1 r9886"
   sodipodi:docname="新建文档 2">
  <defs
     id="defs3235" />
  <sodipodi:namedview
     id="base"
     pagecolor="#ffffff"
     bordercolor="#666666"
     borderopacity="1.0"
     inkscape:pageopacity="0.0"
     inkscape:pageshadow="2"
     inkscape:zoom="0.76095916"
     inkscape:cx="-347.65061"
     inkscape:cy="221.80914"
     inkscape:document-units="px"
     inkscape:current-layer="g9"
     showgrid="false"
     fit-margin-top="0"
     fit-margin-left="0"
     fit-margin-right="0"
     fit-margin-bottom="0"
     inkscape:window-width="1600"
     inkscape:window-height="848"
     inkscape:window-x="-8"
     inkscape:window-y="-8"
     inkscape:window-maximized="1" />
  <metadata
     id="metadata3238">
    <rdf:RDF>
      <cc:Work
         rdf:about="">
        <dc:format>image/svg+xml</dc:format>
        <dc:type
           rdf:resource="http://purl.org/dc/dcmitype/StillImage" />
        <dc:title></dc:title>
      </cc:Work>
    </rdf:RDF>
  </metadata>
  <g
     inkscape:label="Layer 1"
     inkscape:groupmode="layer"
     id="layer1"
     transform="translate(-184.98687,-438.98865)">
    <g
       transform="matrix(2.9624838,0,0,2.9624838,-173.89039,440.08315)"
       id="g9">
      <path
         style="fill:#ffffff;fill-opacity:1;stroke:#a4abde;stroke-width:1.74245679;stroke-miterlimit:10;stroke-opacity:1;stroke-dasharray:none"
         inkscape:connector-curvature="0"
         stroke-miterlimit="10"
         d="m 177.473,41.494 c 0.878,1.188 1.583,2.528 2.063,4.012 2.411,7.404 -1.647,15.353 -9.05,17.759 -5.988,1.944 -12.335,-0.334 -15.817,-5.194 -0.857,1.199 -1.919,2.291 -3.176,3.205 -6.3,4.57 -15.116,3.18 -19.691,-3.118 -3.702,-5.092 -3.497,-11.841 0.054,-16.647 -1.409,-0.445 -2.771,-1.116 -4.032,-2.026 -6.298,-4.579 -7.697,-13.393 -3.116,-19.693 3.702,-5.092 10.177,-6.976 15.852,-5.092 -0.011,-1.476 0.204,-2.975 0.687,-4.455 2.406,-7.407 10.359,-11.455 17.763,-9.049 5.989,1.941 9.788,7.52 9.744,13.494 1.399,-0.467 2.898,-0.72 4.458,-0.72 7.785,0 14.095,6.311 14.095,14.092 -0.003,6.295 -4.139,11.625 -9.834,13.432 l 0,0 0,0 z"
         id="path11" />
      <path
         inkscape:connector-curvature="0"
         d="m 172.51055,26.511973 c -0.52142,0.169437 -0.83942,0.670951 -0.80107,1.19237 l -14.40103,4.74791 c -0.083,-0.185944 -0.18691,-0.364121 -0.31022,-0.529188 l 7.47623,-7.066004 c 0.20633,0.107779 0.45393,0.136909 0.69668,0.05923 0.4719,-0.15293 0.73067,-0.662698 0.57677,-1.137996 -0.15439,-0.4719 -0.66222,-0.733094 -1.13801,-0.576766 -0.47286,0.154873 -0.73115,0.662213 -0.57725,1.136539 0.009,0.03058 0.0214,0.06262 0.0335,0.0903 l -7.46652,7.05678 c -0.14856,-0.136909 -0.31411,-0.257312 -0.49277,-0.35878 l 4.15342,-9.723231 c 0.23401,0.01263 0.4719,-0.06117 0.65736,-0.232065 0.37334,-0.330621 0.40004,-0.901076 0.0699,-1.272478 -0.33547,-0.371402 -0.9035,-0.400046 -1.27539,-0.06602 -0.368,0.333049 -0.40053,0.90156 -0.0665,1.273934 0.0214,0.0233 0.0437,0.04563 0.0694,0.06894 l -4.14905,9.708665 c -0.18983,-0.06117 -0.38791,-0.106322 -0.59522,-0.12817 l 0,-14.956251 c 0.49521,-0.135937 0.85981,-0.585504 0.85981,-1.123916 0,-0.645706 -0.52238,-1.167126 -1.16761,-1.167126 -0.64376,0 -1.16712,0.52142 -1.16712,1.167126 0,0.545694 0.37771,1.003028 0.88408,1.130713 l 0,14.948483 c -0.20585,0.0199 -0.40539,0.06166 -0.59667,0.121859 l -4.32392,-9.554681 c 0.1675,-0.161184 0.26945,-0.38888 0.26945,-0.640851 0,-0.499573 -0.40394,-0.903017 -0.90253,-0.903017 -0.49764,0 -0.90205,0.403444 -0.90205,0.903017 0,0.497631 0.40441,0.90156 0.90205,0.90156 0.034,0 0.066,-9.36e-4 0.099,-0.0049 l 4.31566,9.536232 c -0.17817,0.09904 -0.34324,0.221871 -0.49617,0.355867 l -7.69177,-7.11057 c 0.0864,-0.217985 0.0877,-0.467256 -0.0151,-0.698138 -0.20305,-0.456092 -0.73649,-0.658329 -1.18994,-0.457335 -0.45636,0.203422 -0.66075,0.736008 -0.45782,1.190915 0.20002,0.454907 0.73552,0.658814 1.18994,0.458791 0.0316,-0.01457 0.0592,-0.02913 0.0879,-0.04612 l 7.67575,7.097461 c -0.12284,0.16361 -0.2311,0.339844 -0.31412,0.52676 L 137.61983,27.79767 c 0.0247,-0.513651 -0.29324,-0.998659 -0.80689,-1.163726 -0.61172,-0.200995 -1.27199,0.135938 -1.46958,0.748145 -0.19857,0.616576 0.13691,1.271992 0.75154,1.472501 0.51802,0.169436 1.07051,-0.04709 1.34919,-0.492291 l 14.3918,4.629296 c -0.0437,0.198567 -0.0694,0.404902 -0.0729,0.616091 l -10.68269,1.169866 c -0.10293,-0.207306 -0.2879,-0.376743 -0.52676,-0.455392 -0.47481,-0.152931 -0.98118,0.106323 -1.13752,0.58162 -0.15341,0.473356 0.10536,0.981182 0.57872,1.135083 0.47286,0.154387 0.98312,-0.102439 1.13654,-0.580164 0.0111,-0.03107 0.0185,-0.06262 0.0258,-0.09322 l 10.66036,-1.16841 c 0.0403,0.204879 0.10049,0.405873 0.18254,0.597157 l -8.79727,5.405039 c -0.18011,-0.149047 -0.41751,-0.226726 -0.66755,-0.203907 -0.4952,0.05486 -0.85495,0.501514 -0.80251,0.993318 0.0534,0.495689 0.49569,0.856896 0.98846,0.803006 0.49812,-0.05292 0.85786,-0.496659 0.80446,-0.991377 -0.003,-0.03253 -0.007,-0.0636 -0.0145,-0.09856 l 8.78124,-5.394358 c 0.1204,0.171865 0.25926,0.328679 0.41461,0.468501 l -9.42703,12.924362 c -0.48258,-0.18206 -1.04381,-0.03204 -1.3589,0.405872 -0.38062,0.520449 -0.26508,1.252088 0.25926,1.630772 0.52142,0.379656 1.25159,0.262166 1.63077,-0.260225 0.32139,-0.442769 0.28498,-1.033614 -0.0514,-1.435117 l 9.42121,-12.911254 c 0.17963,0.106323 0.37383,0.19711 0.57483,0.26071 l -2.5044,10.656377 c -0.2311,0.03447 -0.44762,0.159728 -0.59667,0.362663 -0.29275,0.404416 -0.2039,0.968073 0.19857,1.258399 0.40393,0.294694 0.96953,0.20682 1.25985,-0.197596 0.29518,-0.405873 0.20439,-0.968073 -0.19759,-1.259855 -0.0282,-0.01942 -0.0543,-0.03738 -0.0835,-0.05389 l 2.50003,-10.638414 c 0.10729,0.01165 0.21895,0.01942 0.32819,0.01942 0.10389,0 0.20196,-0.0049 0.30488,-0.01311 l 1.86263,10.608899 c -0.19711,0.124286 -0.34567,0.32528 -0.39762,0.572882 -0.1034,0.48695 0.20876,0.966131 0.69668,1.068084 0.48744,0.105353 0.96517,-0.207305 1.07052,-0.693283 0.10438,-0.488892 -0.20634,-0.966617 -0.69717,-1.070998 -0.0316,-0.0058 -0.0641,-0.01165 -0.0942,-0.0131 L 155.54178,36.40218 c 0.2039,-0.06554 0.39811,-0.15293 0.57629,-0.260223 l 9.30647,12.198603 c -0.31897,0.399561 -0.35004,0.980696 -0.0349,1.414241 0.38063,0.522391 1.11032,0.639395 1.63223,0.259254 0.5219,-0.380141 0.63939,-1.110323 0.25877,-1.630771 -0.32334,-0.443741 -0.89671,-0.592788 -1.38123,-0.39325 L 156.5973,35.794829 c 0.15536,-0.139337 0.29712,-0.296637 0.4185,-0.464617 l 9.30874,5.40164 c -0.0393,0.229153 0.0102,0.475298 0.15973,0.679205 0.29275,0.403445 0.85689,0.492775 1.25985,0.198567 0.40248,-0.291781 0.49375,-0.855439 0.20003,-1.259855 -0.29324,-0.40393 -0.85836,-0.493261 -1.26083,-0.197595 -0.0282,0.01797 -0.0534,0.03738 -0.0777,0.0602 l -9.29758,-5.398727 c 0.0845,-0.188372 0.15196,-0.385482 0.1942,-0.592302 l 10.84542,1.212002 c 0.0573,0.225754 0.20342,0.428691 0.41994,0.556375 0.43161,0.247602 0.9841,0.100012 1.23511,-0.333534 0.24905,-0.430146 0.0985,-0.982152 -0.33112,-1.230725 -0.43305,-0.249058 -0.9836,-0.100497 -1.23363,0.329165 -0.0155,0.02816 -0.0306,0.05729 -0.0437,0.08884 l -10.83522,-1.21346 c 0,-0.210704 -0.0267,-0.417038 -0.0694,-0.614634 l 14.40103,-4.74985 c 0.28159,0.426748 0.82437,0.634539 1.33511,0.466558 0.61463,-0.198566 0.94671,-0.855438 0.75057,-1.470073 -0.19177,-0.613663 -0.85155,-0.95011 -1.4657,-0.750086 l 0,0 z"
         id="path13"
         sodipodi:nodetypes="cccccccccccccccccccccsssccccssssccccsccccccccccccccccccccccccccccccccsccccccccccscccccccccccscccccccccccccccccccccccccc"
         style="fill:#a4abde;fill-opacity:1;stroke:none" />
    </g>
  </g>
</svg>
